<svg width="200" height="32" viewBox="0 0 200 32" fill="none" xmlns="http://www.w3.org/2000/svg">
<path d="M7.73408 29.0137C10.1373 30.3682 12.8464 31.0237 15.8614 31.0237C18.0462 31.0237 20.0561 30.6741 21.935 29.9313C23.8139 29.2321 25.4306 28.1398 26.7415 26.7415L25.3433 25.2996C22.8526 27.7465 19.7066 28.97 15.9488 28.97C13.3708 28.97 11.0549 28.4019 8.95754 27.2222C6.86016 26.0861 5.19975 24.4694 4.01998 22.4157C2.79651 20.362 2.22846 18.0462 2.22846 15.5118C2.22846 12.9775 2.79651 10.7053 4.01998 8.65166C5.19975 6.59799 6.86016 4.98126 8.95754 3.80149C11.0549 2.66541 13.3708 2.05368 15.9488 2.05368C19.7503 2.05368 22.8963 3.27714 25.3433 5.68038L26.7415 4.23844C25.4306 2.84019 23.8139 1.79151 21.9787 1.09238C20.0998 0.393257 18.0462 0 15.8614 0C12.8464 0 10.1373 0.699122 7.73408 2.00998C5.33084 3.36453 3.45193 5.19974 2.05368 7.55928C0.655431 9.91883 0 12.5842 0 15.5118C0 18.4831 0.655431 21.1048 2.05368 23.4644C3.45193 25.8239 5.33084 27.7028 7.73408 29.0137Z" fill="#00CAE9"/>
<path d="M40.8432 29.0137C43.2464 30.3682 45.9555 31.0237 48.9705 31.0237C51.9418 31.0237 54.6509 30.3682 57.0978 29.0137C59.5011 27.7028 61.38 25.8239 62.7782 23.4644C64.1765 21.1048 64.8756 18.4831 64.8756 15.5118C64.8756 12.5842 64.1765 9.91883 62.7782 7.55928C61.38 5.19974 59.5011 3.36453 57.0978 2.00998C54.6509 0.699122 51.9418 0 48.9705 0C45.9555 0 43.2464 0.699124 40.8432 2.05368C38.3963 3.40823 36.5174 5.24343 35.1191 7.60298C33.7209 9.96252 33.0654 12.6279 33.0654 15.5118C33.0654 18.4394 33.7209 21.0611 35.1191 23.4207C36.5174 25.7802 38.3963 27.6591 40.8432 29.0137ZM55.9181 27.2222C53.8207 28.4019 51.5048 28.97 48.9705 28.97C46.3925 28.97 44.0766 28.4019 41.9793 27.2222C39.8819 26.0861 38.2652 24.4694 37.0854 22.4157C35.8619 20.362 35.2939 18.0462 35.2939 15.5118C35.2939 12.9775 35.8619 10.7053 37.0854 8.65166C38.2652 6.59799 39.8819 4.98126 41.9793 3.80149C44.0766 2.66541 46.3925 2.05368 48.9705 2.05368C51.5048 2.05368 53.8207 2.66541 55.9181 3.80149C57.9717 4.98126 59.5885 6.59799 60.8119 8.65166C61.9917 10.7053 62.6034 12.9775 62.6034 15.5118C62.6034 18.0462 61.9917 20.362 60.8119 22.4157C59.5885 24.4694 57.9717 26.0861 55.9181 27.2222Z" fill="#00CAE9"/>
<path d="M103.959 30.8054H106.143L106.1 0.21875H104.264L90.5877 23.8579L76.9111 0.21875H75.0322V30.8054H77.217V4.71936L90.0197 26.7418H91.1121L103.915 4.63198L103.959 30.8054Z" fill="#00CAE9"/>
<path d="M139.205 2.97155C137.02 1.13635 134.005 0.21875 130.16 0.21875H119.192V2.22873H130.16C133.393 2.22873 135.884 2.97155 137.632 4.4135C139.336 5.85544 140.21 7.90912 140.21 10.5308C140.21 13.1962 139.336 15.2499 137.632 16.6482C135.884 18.0901 133.393 18.7892 130.16 18.7892H119.192V30.8054H121.421V20.7992H130.16C134.005 20.7992 137.02 19.9253 139.205 18.0901C141.39 16.2549 142.482 13.7643 142.482 10.5308C142.482 7.34108 141.39 4.80676 139.205 2.97155Z" fill="#00CAE9"/>
<path d="M157.259 2.22873V30.8054H159.488V2.22873H170.499V0.21875H146.248V2.22873H157.259Z" fill="#00CAE9"/>
<path d="M187.677 20.2749L200 0.21875H197.684L186.629 18.2212L175.574 0.21875H173.127L185.449 20.2749V30.8054H187.677V20.2749Z" fill="#00CAE9"/>
</svg>
